<svg width="1792" height="1792" xmlns="http://www.w3.org/2000/svg">

 <g>
  <title>background</title>
  <rect fill="none" id="canvas_background" height="402" width="582" y="-1" x="-1"/>
 </g>
 <g>
  <title>Layer 1</title>
  <path id="svg_1" d="m1579,128q35,0 60,25t25,60l0,1366q0,35 -25,60t-60,25l-391,0l0,-595l199,0l30,-232l-229,0l0,-148q0,-56 23.5,-84t91.5,-28l122,-1l0,-207q-63,-9 -178,-9q-136,0 -217.5,80t-81.5,226l0,171l-200,0l0,232l200,0l0,595l-735,0q-35,0 -60,-25t-25,-60l0,-1366q0,-35 25,-60t60,-25l1366,0z"/>
 </g>
</svg>